<mxfile host="app.diagrams.net" modified="2023-10-06T12:41:55.488Z" agent="Mozilla/5.0 (Windows NT 10.0; Win64; x64) AppleWebKit/537.36 (KHTML, like Gecko) Chrome/115.0.0.0 Safari/537.36" etag="hZgKtisWle-NpAwlhtLH" version="22.0.3" type="github">
  <diagram id="B1Zu1a-UncOYImoCYop1" name="Trang-1">
    <mxGraphModel dx="1019" dy="530" grid="1" gridSize="10" guides="1" tooltips="1" connect="1" arrows="1" fold="1" page="1" pageScale="1" pageWidth="850" pageHeight="1100" math="0" shadow="0">
      <root>
        <mxCell id="0" />
        <mxCell id="1" parent="0" />
        <mxCell id="pxBtNwQNtocNrmD7o8Fh-10" value="Word" style="swimlane;fontStyle=1;align=center;verticalAlign=top;childLayout=stackLayout;horizontal=1;startSize=26;horizontalStack=0;resizeParent=1;resizeParentMax=0;resizeLast=0;collapsible=1;marginBottom=0;whiteSpace=wrap;html=1;movable=1;resizable=1;rotatable=1;deletable=1;editable=1;locked=0;connectable=1;" vertex="1" parent="1">
          <mxGeometry x="318" width="160" height="256" as="geometry" />
        </mxCell>
        <mxCell id="pxBtNwQNtocNrmD7o8Fh-11" value="- word_target: String" style="text;strokeColor=none;fillColor=none;align=left;verticalAlign=middle;spacingLeft=4;spacingRight=4;overflow=hidden;rotatable=0;points=[[0,0.5],[1,0.5]];portConstraint=eastwest;whiteSpace=wrap;html=1;" vertex="1" parent="pxBtNwQNtocNrmD7o8Fh-10">
          <mxGeometry y="26" width="160" height="32" as="geometry" />
        </mxCell>
        <mxCell id="pxBtNwQNtocNrmD7o8Fh-14" value="- word_explain: String" style="text;html=1;align=left;verticalAlign=middle;resizable=0;points=[];autosize=1;strokeColor=none;fillColor=none;spacingTop=0;spacingLeft=4;" vertex="1" parent="pxBtNwQNtocNrmD7o8Fh-10">
          <mxGeometry y="58" width="160" height="30" as="geometry" />
        </mxCell>
        <mxCell id="pxBtNwQNtocNrmD7o8Fh-12" value="" style="line;strokeWidth=1;fillColor=none;align=left;verticalAlign=middle;spacingTop=-1;spacingLeft=3;spacingRight=3;rotatable=0;labelPosition=right;points=[];portConstraint=eastwest;strokeColor=inherit;" vertex="1" parent="pxBtNwQNtocNrmD7o8Fh-10">
          <mxGeometry y="88" width="160" height="8" as="geometry" />
        </mxCell>
        <mxCell id="pxBtNwQNtocNrmD7o8Fh-16" value="+&amp;nbsp;Word(String , String )" style="text;strokeColor=none;fillColor=none;align=left;verticalAlign=middle;spacingLeft=4;spacingRight=4;overflow=hidden;rotatable=0;points=[[0,0.5],[1,0.5]];portConstraint=eastwest;whiteSpace=wrap;html=1;" vertex="1" parent="pxBtNwQNtocNrmD7o8Fh-10">
          <mxGeometry y="96" width="160" height="32" as="geometry" />
        </mxCell>
        <mxCell id="pxBtNwQNtocNrmD7o8Fh-17" value="+ getWord(): String" style="text;strokeColor=none;fillColor=none;align=left;verticalAlign=middle;spacingLeft=4;spacingRight=4;overflow=hidden;rotatable=0;points=[[0,0.5],[1,0.5]];portConstraint=eastwest;whiteSpace=wrap;html=1;" vertex="1" parent="pxBtNwQNtocNrmD7o8Fh-10">
          <mxGeometry y="128" width="160" height="32" as="geometry" />
        </mxCell>
        <mxCell id="pxBtNwQNtocNrmD7o8Fh-15" value="+ setWord(): Void" style="text;strokeColor=none;fillColor=none;align=left;verticalAlign=middle;spacingLeft=4;spacingRight=4;overflow=hidden;rotatable=0;points=[[0,0.5],[1,0.5]];portConstraint=eastwest;whiteSpace=wrap;html=1;" vertex="1" parent="pxBtNwQNtocNrmD7o8Fh-10">
          <mxGeometry y="160" width="160" height="32" as="geometry" />
        </mxCell>
        <mxCell id="pxBtNwQNtocNrmD7o8Fh-13" value="+ getDef(): String" style="text;strokeColor=none;fillColor=none;align=left;verticalAlign=middle;spacingLeft=4;spacingRight=4;overflow=hidden;rotatable=0;points=[[0,0.5],[1,0.5]];portConstraint=eastwest;whiteSpace=wrap;html=1;" vertex="1" parent="pxBtNwQNtocNrmD7o8Fh-10">
          <mxGeometry y="192" width="160" height="32" as="geometry" />
        </mxCell>
        <mxCell id="pxBtNwQNtocNrmD7o8Fh-18" value="+ setDef(): Void" style="text;strokeColor=none;fillColor=none;align=left;verticalAlign=middle;spacingLeft=4;spacingRight=4;overflow=hidden;rotatable=0;points=[[0,0.5],[1,0.5]];portConstraint=eastwest;whiteSpace=wrap;html=1;" vertex="1" parent="pxBtNwQNtocNrmD7o8Fh-10">
          <mxGeometry y="224" width="160" height="32" as="geometry" />
        </mxCell>
        <mxCell id="pxBtNwQNtocNrmD7o8Fh-103" value="" style="edgeStyle=orthogonalEdgeStyle;rounded=0;orthogonalLoop=1;jettySize=auto;html=1;entryX=0;entryY=0.5;entryDx=0;entryDy=0;" edge="1" parent="1" source="pxBtNwQNtocNrmD7o8Fh-82" target="pxBtNwQNtocNrmD7o8Fh-102">
          <mxGeometry relative="1" as="geometry">
            <Array as="points">
              <mxPoint x="153" y="90" />
            </Array>
          </mxGeometry>
        </mxCell>
        <mxCell id="pxBtNwQNtocNrmD7o8Fh-82" value="Vocabulary" style="swimlane;fontStyle=1;align=center;verticalAlign=top;childLayout=stackLayout;horizontal=1;startSize=26;horizontalStack=0;resizeParent=1;resizeParentMax=0;resizeLast=0;collapsible=1;marginBottom=0;whiteSpace=wrap;html=1;movable=1;resizable=1;rotatable=1;deletable=1;editable=1;locked=0;connectable=1;" vertex="1" parent="1">
          <mxGeometry x="28" y="320" width="250" height="348" as="geometry" />
        </mxCell>
        <mxCell id="pxBtNwQNtocNrmD7o8Fh-91" value="-&amp;nbsp;spellTranscribePhonetically&lt;span style=&quot;background-color: initial;&quot;&gt;: String&lt;/span&gt;" style="text;html=1;align=left;verticalAlign=middle;resizable=0;points=[];autosize=1;strokeColor=none;fillColor=none;spacingTop=0;spacingLeft=4;" vertex="1" parent="pxBtNwQNtocNrmD7o8Fh-82">
          <mxGeometry y="26" width="250" height="30" as="geometry" />
        </mxCell>
        <mxCell id="pxBtNwQNtocNrmD7o8Fh-92" value="-&amp;nbsp;synonymous&lt;span style=&quot;background-color: initial;&quot;&gt;: String&lt;/span&gt;" style="text;html=1;align=left;verticalAlign=middle;resizable=0;points=[];autosize=1;strokeColor=none;fillColor=none;spacingTop=0;spacingLeft=4;" vertex="1" parent="pxBtNwQNtocNrmD7o8Fh-82">
          <mxGeometry y="56" width="250" height="30" as="geometry" />
        </mxCell>
        <mxCell id="pxBtNwQNtocNrmD7o8Fh-93" value="-&amp;nbsp;antonyms&lt;span style=&quot;background-color: initial;&quot;&gt;: String&lt;/span&gt;" style="text;html=1;align=left;verticalAlign=middle;resizable=0;points=[];autosize=1;strokeColor=none;fillColor=none;spacingTop=0;spacingLeft=4;" vertex="1" parent="pxBtNwQNtocNrmD7o8Fh-82">
          <mxGeometry y="86" width="250" height="30" as="geometry" />
        </mxCell>
        <mxCell id="pxBtNwQNtocNrmD7o8Fh-85" value="" style="line;strokeWidth=1;fillColor=none;align=left;verticalAlign=middle;spacingTop=-1;spacingLeft=3;spacingRight=3;rotatable=0;labelPosition=right;points=[];portConstraint=eastwest;strokeColor=inherit;" vertex="1" parent="pxBtNwQNtocNrmD7o8Fh-82">
          <mxGeometry y="116" width="250" height="8" as="geometry" />
        </mxCell>
        <mxCell id="pxBtNwQNtocNrmD7o8Fh-86" value="+&amp;nbsp;Vocabulary&lt;span style=&quot;background-color: initial;&quot;&gt;(String , String )&lt;/span&gt;" style="text;strokeColor=none;fillColor=none;align=left;verticalAlign=middle;spacingLeft=4;spacingRight=4;overflow=hidden;rotatable=0;points=[[0,0.5],[1,0.5]];portConstraint=eastwest;whiteSpace=wrap;html=1;" vertex="1" parent="pxBtNwQNtocNrmD7o8Fh-82">
          <mxGeometry y="124" width="250" height="32" as="geometry" />
        </mxCell>
        <mxCell id="pxBtNwQNtocNrmD7o8Fh-94" value="+&amp;nbsp;getSpellTranscribePhonetically&lt;span style=&quot;background-color: initial;&quot;&gt;(): String&lt;/span&gt;" style="text;strokeColor=none;fillColor=none;align=left;verticalAlign=middle;spacingLeft=4;spacingRight=4;overflow=hidden;rotatable=0;points=[[0,0.5],[1,0.5]];portConstraint=eastwest;whiteSpace=wrap;html=1;" vertex="1" parent="pxBtNwQNtocNrmD7o8Fh-82">
          <mxGeometry y="156" width="250" height="32" as="geometry" />
        </mxCell>
        <mxCell id="pxBtNwQNtocNrmD7o8Fh-95" value="+&amp;nbsp;setSpellTranscribePhonetically&lt;span style=&quot;background-color: initial;&quot;&gt;(): Void&lt;/span&gt;" style="text;strokeColor=none;fillColor=none;align=left;verticalAlign=middle;spacingLeft=4;spacingRight=4;overflow=hidden;rotatable=0;points=[[0,0.5],[1,0.5]];portConstraint=eastwest;whiteSpace=wrap;html=1;" vertex="1" parent="pxBtNwQNtocNrmD7o8Fh-82">
          <mxGeometry y="188" width="250" height="32" as="geometry" />
        </mxCell>
        <mxCell id="pxBtNwQNtocNrmD7o8Fh-96" value="+&amp;nbsp;getSynonymous&lt;span style=&quot;background-color: initial;&quot;&gt;(): String&lt;/span&gt;" style="text;strokeColor=none;fillColor=none;align=left;verticalAlign=middle;spacingLeft=4;spacingRight=4;overflow=hidden;rotatable=0;points=[[0,0.5],[1,0.5]];portConstraint=eastwest;whiteSpace=wrap;html=1;" vertex="1" parent="pxBtNwQNtocNrmD7o8Fh-82">
          <mxGeometry y="220" width="250" height="32" as="geometry" />
        </mxCell>
        <mxCell id="pxBtNwQNtocNrmD7o8Fh-97" value="+&amp;nbsp;setSynonymous&lt;span style=&quot;background-color: initial;&quot;&gt;(): Void&lt;/span&gt;" style="text;strokeColor=none;fillColor=none;align=left;verticalAlign=middle;spacingLeft=4;spacingRight=4;overflow=hidden;rotatable=0;points=[[0,0.5],[1,0.5]];portConstraint=eastwest;whiteSpace=wrap;html=1;" vertex="1" parent="pxBtNwQNtocNrmD7o8Fh-82">
          <mxGeometry y="252" width="250" height="32" as="geometry" />
        </mxCell>
        <mxCell id="pxBtNwQNtocNrmD7o8Fh-98" value="+&amp;nbsp;getAntonyms&lt;span style=&quot;background-color: initial;&quot;&gt;(): String&lt;/span&gt;" style="text;strokeColor=none;fillColor=none;align=left;verticalAlign=middle;spacingLeft=4;spacingRight=4;overflow=hidden;rotatable=0;points=[[0,0.5],[1,0.5]];portConstraint=eastwest;whiteSpace=wrap;html=1;" vertex="1" parent="pxBtNwQNtocNrmD7o8Fh-82">
          <mxGeometry y="284" width="250" height="32" as="geometry" />
        </mxCell>
        <mxCell id="pxBtNwQNtocNrmD7o8Fh-99" value="+&amp;nbsp;setAntonyms&lt;span style=&quot;background-color: initial;&quot;&gt;(): Void&lt;/span&gt;" style="text;strokeColor=none;fillColor=none;align=left;verticalAlign=middle;spacingLeft=4;spacingRight=4;overflow=hidden;rotatable=0;points=[[0,0.5],[1,0.5]];portConstraint=eastwest;whiteSpace=wrap;html=1;" vertex="1" parent="pxBtNwQNtocNrmD7o8Fh-82">
          <mxGeometry y="316" width="250" height="32" as="geometry" />
        </mxCell>
        <mxCell id="pxBtNwQNtocNrmD7o8Fh-102" value="" style="triangle;whiteSpace=wrap;html=1;verticalAlign=top;fontStyle=1;startSize=26;" vertex="1" parent="1">
          <mxGeometry x="258" y="50" width="60" height="80" as="geometry" />
        </mxCell>
      </root>
    </mxGraphModel>
  </diagram>
</mxfile>
